<svg width="17" height="17" viewBox="0 0 17 17" fill="none" xmlns="http://www.w3.org/2000/svg">
<path d="M8.49967 12.4584C8.68023 12.4584 8.82967 12.3995 8.94801 12.2817C9.06579 12.1634 9.12467 12.0139 9.12467 11.8334V8.27087C9.12467 8.10421 9.06579 7.96171 8.94801 7.84337C8.82967 7.7256 8.68023 7.66671 8.49967 7.66671C8.31912 7.66671 8.16995 7.7256 8.05217 7.84337C7.93384 7.96171 7.87467 8.11115 7.87467 8.29171V11.8542C7.87467 12.0209 7.93384 12.1634 8.05217 12.2817C8.16995 12.3995 8.31912 12.4584 8.49967 12.4584ZM8.49967 6.25004C8.69412 6.25004 8.85384 6.18393 8.97884 6.05171C9.10384 5.92004 9.16634 5.75699 9.16634 5.56254C9.16634 5.38199 9.10384 5.2256 8.97884 5.09337C8.85384 4.96171 8.69412 4.89587 8.49967 4.89587C8.30523 4.89587 8.14551 4.96171 8.02051 5.09337C7.89551 5.2256 7.83301 5.38199 7.83301 5.56254C7.83301 5.75699 7.89551 5.92004 8.02051 6.05171C8.14551 6.18393 8.30523 6.25004 8.49967 6.25004ZM8.49967 16.4167C7.40245 16.4167 6.37134 16.2084 5.40634 15.7917C4.44079 15.375 3.60384 14.8125 2.89551 14.1042C2.18717 13.3959 1.62467 12.5589 1.20801 11.5934C0.791341 10.6284 0.583008 9.59726 0.583008 8.50004C0.583008 7.40282 0.791341 6.37143 1.20801 5.40587C1.62467 4.44087 2.18717 3.60421 2.89551 2.89587C3.60384 2.18754 4.44079 1.62504 5.40634 1.20837C6.37134 0.791707 7.40245 0.583374 8.49967 0.583374C9.5969 0.583374 10.6283 0.791707 11.5938 1.20837C12.5588 1.62504 13.3955 2.18754 14.1038 2.89587C14.8122 3.60421 15.3747 4.44087 15.7913 5.40587C16.208 6.37143 16.4163 7.40282 16.4163 8.50004C16.4163 9.59726 16.208 10.6284 15.7913 11.5934C15.3747 12.5589 14.8122 13.3959 14.1038 14.1042C13.3955 14.8125 12.5588 15.375 11.5938 15.7917C10.6283 16.2084 9.5969 16.4167 8.49967 16.4167ZM8.49967 15.1667C10.3469 15.1667 11.92 14.5175 13.2188 13.2192C14.5172 11.9203 15.1663 10.3473 15.1663 8.50004C15.1663 6.65282 14.5172 5.07976 13.2188 3.78087C11.92 2.48254 10.3469 1.83337 8.49967 1.83337C6.65245 1.83337 5.07967 2.48254 3.78134 3.78087C2.48245 5.07976 1.83301 6.65282 1.83301 8.50004C1.83301 10.3473 2.48245 11.9203 3.78134 13.2192C5.07967 14.5175 6.65245 15.1667 8.49967 15.1667Z" fill="#16103E"/>
</svg>
