<svg width="12" height="12" viewBox="0 0 12 12" fill="none" xmlns="http://www.w3.org/2000/svg">
<path d="M6 12C5.16842 12 4.38695 11.8421 3.65558 11.5263C2.92379 11.2105 2.28947 10.7842 1.75263 10.2474C1.21579 9.71053 0.789474 9.07621 0.473684 8.34442C0.157895 7.61305 0 6.83158 0 6C0 5.16842 0.157895 4.38674 0.473684 3.65495C0.789474 2.92358 1.21579 2.28947 1.75263 1.75263C2.28947 1.21579 2.92379 0.789474 3.65558 0.473684C4.38695 0.157895 5.16842 0 6 0C6.83158 0 7.61326 0.157895 8.34505 0.473684C9.07642 0.789474 9.71053 1.21579 10.2474 1.75263C10.7842 2.28947 11.2105 2.92358 11.5263 3.65495C11.8421 4.38674 12 5.16842 12 6C12 6.83158 11.8421 7.61305 11.5263 8.34442C11.2105 9.07621 10.7842 9.71053 10.2474 10.2474C9.71053 10.7842 9.07642 11.2105 8.34505 11.5263C7.61326 11.8421 6.83158 12 6 12ZM5.36842 11.0211V9.78947C5.02105 9.78947 4.72379 9.66589 4.47663 9.41874C4.22905 9.17116 4.10526 8.87368 4.10526 8.52632V7.89474L1.07368 4.86316C1.04211 5.05263 1.01305 5.24211 0.986526 5.43158C0.960421 5.62105 0.947368 5.81053 0.947368 6C0.947368 7.27368 1.36589 8.38947 2.20295 9.34737C3.03958 10.3053 4.09474 10.8632 5.36842 11.0211ZM9.72632 9.41053C9.93684 9.17895 10.1263 8.92884 10.2947 8.66021C10.4632 8.392 10.6027 8.11305 10.7135 7.82337C10.8238 7.5341 10.908 7.23684 10.9661 6.93158C11.0238 6.62632 11.0526 6.31579 11.0526 6C11.0526 4.96842 10.7659 4.02358 10.1924 3.16547C9.61853 2.30779 8.85263 1.68947 7.89474 1.31053V1.57895C7.89474 1.92632 7.77116 2.22358 7.524 2.47074C7.27642 2.71832 6.97895 2.84211 6.63158 2.84211H5.36842V4.10526C5.36842 4.28421 5.308 4.4341 5.18716 4.55495C5.06589 4.67621 4.91579 4.73684 4.73684 4.73684H3.47368V6H7.26316C7.4421 6 7.59221 6.06042 7.71347 6.18126C7.83432 6.30253 7.89474 6.45263 7.89474 6.63158V8.52632H8.52632C8.8 8.52632 9.04737 8.60779 9.26842 8.77074C9.48947 8.9341 9.64211 9.14737 9.72632 9.41053Z" fill="#16103E"/>
</svg>
