<svg width="16" height="16" viewBox="0 0 16 16" fill="none" xmlns="http://www.w3.org/2000/svg">
<path d="M5.83299 15.083C5.40299 15.083 5.03166 14.927 4.71899 14.615C4.40633 14.3023 4.24999 13.9307 4.24999 13.5V5.83299C4.24999 5.40299 4.40633 5.03166 4.71899 4.71899C5.03166 4.40633 5.40299 4.24999 5.83299 4.24999H13.5C13.9307 4.24999 14.3023 4.40633 14.615 4.71899C14.927 5.03166 15.083 5.40299 15.083 5.83299V13.5C15.083 13.9307 14.927 14.3023 14.615 14.615C14.3023 14.927 13.9307 15.083 13.5 15.083H5.83299ZM6.49999 7.39599H12.833C13.083 7.39599 13.2983 7.30566 13.479 7.12499C13.6597 6.94433 13.75 6.73599 13.75 6.49999C13.75 6.24999 13.6597 6.03466 13.479 5.85399C13.2983 5.67333 13.083 5.58299 12.833 5.58299H6.49999C6.24999 5.58299 6.03466 5.67333 5.85399 5.85399C5.67333 6.03466 5.58299 6.24999 5.58299 6.49999C5.58299 6.73599 5.67333 6.94433 5.85399 7.12499C6.03466 7.30566 6.24999 7.39599 6.49999 7.39599ZM8.72899 10.604H10.604V8.72899H8.72899V10.604ZM8.72899 13.75H10.604V11.938H8.72899V13.75ZM5.58299 10.604H7.39599V8.72899H5.58299V10.604ZM11.938 10.604H13.75V8.72899H11.938V10.604ZM5.83299 13.75H7.39599V11.938H5.58299V13.5C5.58299 13.5693 5.60733 13.6283 5.65599 13.677C5.70466 13.7257 5.76366 13.75 5.83299 13.75ZM11.938 13.75H13.5C13.5693 13.75 13.6283 13.7257 13.677 13.677C13.7257 13.6283 13.75 13.5693 13.75 13.5V11.938H11.938V13.75ZM2.49999 11.75C2.06933 11.75 1.69766 11.5937 1.38499 11.281C1.07299 10.9683 0.916992 10.597 0.916992 10.167V2.49999C0.916992 2.06933 1.07299 1.69766 1.38499 1.38499C1.69766 1.07299 2.06933 0.916992 2.49999 0.916992H10.167C10.597 0.916992 10.9683 1.07299 11.281 1.38499C11.5937 1.69766 11.75 2.06933 11.75 2.49999V3.37499H10.417V2.49999C10.417 2.43066 10.3927 2.37166 10.344 2.32299C10.2953 2.27433 10.2363 2.24999 10.167 2.24999H2.49999C2.43066 2.24999 2.37166 2.27433 2.32299 2.32299C2.27433 2.37166 2.24999 2.43066 2.24999 2.49999V10.167C2.24999 10.2363 2.27433 10.2953 2.32299 10.344C2.37166 10.3927 2.43066 10.417 2.49999 10.417H3.37499V11.75H2.49999Z" fill="#16103E"/>
</svg>
